<?xml version="1.0" encoding="UTF-8"?>
<svg id="Camada_2" data-name="Camada 2" xmlns="http://www.w3.org/2000/svg" viewBox="0 0 189.29 190.09">
  <defs>
    <style>
      .cls-1 {
        fill: #fff;
        stroke-width: 0px;
      }
    </style>
  </defs>
  <g id="Camada_1-2" data-name="Camada 1">
    <g>
      <path class="cls-1" d="M0,190.09c4.28-15.46,8.66-30.89,12.7-46.41.5-1.91-.43-4.46-1.35-6.41C-5.66,101.03-2.63,66.55,22.05,35.09,52.43-3.64,108.05-11.19,148.96,16.85c39.86,27.33,52.15,81.82,27.97,124.07-24.61,42.99-78.97,59.49-123.54,37.55-1.53-.75-3.57-1.53-5.07-1.14-15.81,4.12-31.55,8.47-47.32,12.76h-1ZM22.57,167.75c9.15-2.4,17.36-4.75,25.67-6.61,2.31-.52,5.35-.31,7.37.8,35.57,19.7,76.85,11.46,101.97-20.54,19.27-24.55,21.43-59.41,5.38-86.87-15.81-27.05-47.59-42.65-77.9-38.24C27.95,24.61-1.19,86.15,28.42,135.71c1.09,1.82,1.36,4.69.87,6.81-1.9,8.15-4.26,16.19-6.72,25.23Z"/>
      <path class="cls-1" d="M46.46,72.92c1.05-7.03,3.37-12.8,7.77-17.97,3.8-4.46,8.55-4.71,13.56-3.82,1.31.23,2.81,1.84,3.42,3.18,2.71,6.03,5.48,12.09,7.44,18.39.6,1.93-.79,5-2.15,6.93-5.86,8.36-5.96,8.27.03,16.4,7.06,9.58,16.25,16.38,27.1,21.12,2.67,1.17,4.69,1.07,6.48-1.42,1.16-1.61,2.58-3.03,3.84-4.56q5.17-6.31,12.4-2.9c4.19,1.98,8.29,4.17,12.57,5.94,3.17,1.31,3.97,3.41,3.74,6.62-.66,9.11-6.68,16.1-16.7,17.59-4.93.74-10.35.55-15.16-.71-27.21-7.13-45.57-25.35-59.11-48.98-2.71-4.72-3.53-10.51-5.23-15.81Z"/>
    </g>
  </g>
</svg>