<?xml version="1.0" encoding="UTF-8"?>
<svg id="Camada_2" data-name="Camada 2" xmlns="http://www.w3.org/2000/svg" viewBox="0 0 55 55">
  <defs>
    <style>
      .cls-1 {
        fill: #ffe4b8;
      }

      .cls-1, .cls-2 {
        stroke-width: 0px;
      }

      .cls-2 {
        fill: #61824a;
      }
    </style>
  </defs>
  <g id="Camada_1-2" data-name="Camada 1">
    <g>
      <rect class="cls-2" width="55" height="55" rx="9.34" ry="9.34"/>
      <g>
        <path class="cls-1" d="M19.73,16.12c0-1.67-.36-3.06-1.45-4.18-.23-.24-.28-.54-.14-.84.16-.34.45-.49.8-.47.85.04,1.7.06,2.54.16,1.87.23,3.68.69,5.38,1.5,4.25,2.03,7.03,5.27,7.92,9.94.67,3.49.07,6.83-1.55,9.98-.77,1.49-1.68,2.89-2.62,4.28-.23.35-.54.5-.94.41-2.1-.47-4.19-.97-6.11-1.98-2.3-1.21-4.11-2.87-5.01-5.38-.56-1.56-.67-3.16-.46-4.79.24-1.86.83-3.64,1.21-5.47.23-1.09.42-2.19.42-3.16ZM26.97,24.68c0-.11.01-.17,0-.23-.24-1.14-.52-2.26-.87-3.37-.04-.13-.13-.2-.24-.27-.73-.48-1.46-.97-2.18-1.46-.39-.26-.5-.73-.27-1.09.24-.38.7-.47,1.13-.22.14.08.25.23.45.26-.9-1.94-2.96-4.42-4.02-4.84.48,1.68.37,3.36.09,5.05-.28,1.67-.76,3.3-1.13,4.95-.32,1.42-.48,2.85-.23,4.3.4,2.31,1.71,3.99,3.64,5.24,1.63,1.05,3.45,1.61,5.31,2.08.24.06.25-.04.22-.23-.15-.78-.31-1.56-.43-2.35-.05-.34-.16-.55-.51-.69-1.13-.45-2.24-.95-3.35-1.43-.39-.17-.54-.44-.5-.84.04-.38.29-.58.63-.67.25-.07.47.07.69.16.87.37,1.73.74,2.64,1.14-.2-1.1-.39-2.15-.56-3.19-.04-.22-.13-.35-.33-.45-.58-.28-1.15-.59-1.72-.88-.79-.41-1.58-.8-2.36-1.22-.4-.22-.51-.66-.31-1.04.2-.36.62-.51,1.01-.34.17.08.34.17.51.25.89.45,1.78.91,2.71,1.39ZM28.48,24.04c.47-.77.89-1.46,1.32-2.14.29-.47.73-.59,1.13-.34.39.25.47.71.2,1.16-.53.88-1.04,1.77-1.62,2.62-.41.61-.62,1.19-.41,1.93.19.65.25,1.33.39,2.07.2-.29.35-.52.52-.74.31-.42.75-.51,1.12-.23.38.28.44.71.15,1.14-.26.39-.5.8-.8,1.16-.48.57-.7,1.15-.46,1.9.15.48.2.99.3,1.56.67-1.03,1.25-2.01,1.74-3.04,1.31-2.71,1.73-5.56,1.21-8.51-.62-3.51-2.55-6.16-5.54-8.05-1.6-1.01-3.36-1.64-5.33-2.02,2.07,1.67,3.44,3.72,4.46,6.09.29-.48.54-.9.81-1.32.34-.52,1-.54,1.33-.04.2.31.15.63-.04.93-.41.67-.81,1.35-1.24,2.01-.14.22-.15.4-.07.64.32,1.02.58,2.06.83,3.22Z"/>
        <path class="cls-1" d="M28.28,44.77c-4.11-.1-8.34-.41-12.45-1.6-1.63-.47-3.24-1.01-4.68-1.95-.98-.64-1.79-1.42-2.16-2.57-.39-1.2-.1-2.25.72-3.17,1.03-1.17,2.39-1.82,3.79-2.41.41-.17.82.06.99.47.15.38,0,.78-.42.97-.78.36-1.57.72-2.28,1.21-.38.26-.73.55-1.01.92-.5.66-.5,1.39,0,2.11.52.75,1.27,1.23,2.08,1.62,1.73.84,3.55,1.39,5.42,1.79,3.93.83,7.91,1.12,11.91.98,3.61-.13,7.2-.51,10.67-1.59,1.6-.5,3.15-1.12,4.48-2.19.65-.52,1.13-1.16.91-2.07-.15-.62-.6-1.05-1.09-1.43-.74-.57-1.58-.95-2.43-1.33-.39-.17-.6-.49-.56-.82.06-.5.56-.87,1.03-.67,1.37.58,2.72,1.2,3.74,2.34,1.43,1.61,1.2,3.7-.56,5.14-1.38,1.14-3,1.82-4.68,2.39-1.96.67-3.98,1.04-6.03,1.31-2.41.33-4.82.47-7.39.52Z"/>
        <path class="cls-1" d="M28.52,41.64c-3.25-.06-6.48-.26-9.65-1.06-1-.25-1.96-.61-2.8-1.23-.22-.16-.41-.34-.58-.55-.53-.65-.54-1.43-.02-2.09.42-.55,1-.88,1.62-1.17.81-.39,1.67-.65,2.54-.86.42-.1.81.11.94.49.13.43-.05.84-.47.98-.49.17-.99.3-1.48.46-.54.18-1.06.41-1.54.73-.51.34-.51.44,0,.8.73.51,1.56.78,2.41.98,2.09.49,4.21.75,6.35.86,1.94.1,3.89.13,5.83-.02,2.27-.18,4.53-.45,6.71-1.2.49-.17.96-.39,1.38-.7.42-.31.41-.51-.02-.81-.51-.35-1.09-.53-1.67-.71-.47-.14-.96-.24-1.43-.38-.38-.12-.55-.39-.52-.78.02-.38.23-.6.59-.71.08-.02.18-.04.26-.02,1.06.25,2.12.48,3.1.98.32.16.62.36.88.59.91.81.93,2.01.05,2.84-.56.53-1.26.85-1.97,1.13-1.18.47-2.43.69-3.67.9-2.26.39-4.53.53-6.82.54Z"/>
      </g>
    </g>
  </g>
</svg>