<?xml version="1.0" encoding="UTF-8"?>
<svg id="Camada_2" data-name="Camada 2" xmlns="http://www.w3.org/2000/svg" viewBox="0 0 55 55">
  <defs>
    <style>
      .cls-1 {
        fill: #ffe4b8;
      }

      .cls-1, .cls-2 {
        stroke-width: 0px;
      }

      .cls-2 {
        fill: #b95c41;
      }
    </style>
  </defs>
  <g id="Camada_1-2" data-name="Camada 1">
    <g>
      <rect class="cls-2" width="55" height="55" rx="9.34" ry="9.34"/>
      <g>
        <path class="cls-1" d="M16.56,50.69c-.4-.24-.5-.61-.5-1.05,0-2.87,0-5.74,0-8.61,0-.18,0-.36.05-.53.08-.33.33-.5.65-.51.32-.01.57.14.69.45.08.2.07.41.07.61,0,2.57,0,5.15,0,7.72,0,.36.08.48.46.47.98-.02.99,0,.99-1,0-2.4,0-4.79,0-7.19,0-.19-.01-.38.05-.57.12-.34.36-.51.7-.5.36.02.61.21.67.59.02.17.03.35.03.53,0,2.53.01,5.06,0,7.59,0,.41.08.55.53.55,4.48-.02,8.97-.02,13.45,0,.45,0,.53-.14.53-.55-.02-2.54,0-5.09,0-7.63,0-.75.24-1.1.74-1.08.48.01.71.36.71,1.07,0,2.57,0,5.15,0,7.72,0,.36.08.48.46.47.99-.02.99,0,.99-1.01,0-2.34,0-4.68,0-7.01,0-.09,0-.18,0-.27,0-.64.25-.97.72-.98.48-.01.74.33.74,1,0,.99,0,1.98,0,2.97,0,1.89,0,3.79,0,5.68,0,.44-.1.81-.5,1.05h-22.2Z"/>
        <path class="cls-1" d="M27.62,38.53c-6.26,0-6.58,0-12.84,0-.9,0-1.1-.19-1.1-1.09,0-.77,0-1.54,0-2.31,0-.72.24-.96.96-.96,2.31,0-1.32,0,.99,0,.34,0,.45-.08.45-.44-.02-1.72,0-3.43,0-5.15,0-.19,0-.39.05-.57.08-.32.3-.5.64-.52.33-.02.57.13.7.44.08.2.07.4.07.61,0,1.72.01,3.43-.01,5.15,0,.41.12.49.5.48.95-.02.95,0,.95-.98,0-1.55,0-3.11,0-4.66,0-.15,0-.3.03-.44.08-.4.38-.63.76-.59.39.04.63.27.64.66.02.68.02,1.36.02,2.04q0,1.05,1.07,1.05c4.31,0,8.61,0,12.92,0,.42,0,.52-.12.51-.52-.03-.77-.01-1.54,0-2.31,0-.63.26-.95.74-.94.46.01.71.33.71.94,0,1.78.01,3.55,0,5.33,0,.34.09.42.42.42,1.03-.01,1.03,0,1.03-1.04,0-1.54,0-3.08,0-4.62,0-.18.01-.36.06-.52.1-.34.35-.51.7-.49.35.01.58.2.65.55.04.17.04.35.04.53,0,1.7.01,3.4,0,5.11,0,.38.08.5.48.5,2.28-.02-1.69-.01.59-.01.79,0,1.01.22,1.02.99,0,.77,0,1.54,0,2.31,0,.84-.22,1.05-1.05,1.05-6.3,0-6.36,0-12.66,0ZM27.61,37.08c5.89,0,5.53,0,11.42,0,.85,0,.85,0,.85-.87,0-.69.1-.6-.62-.6-11.79,0-11.4,0-23.2,0-.94,0-.91,0-.95.95-.02.45.14.52.55.52,5.96-.01,5.99,0,11.95,0ZM27.61,34.17h6.39c.9,0,.87,0,.91-.91.02-.47-.15-.55-.57-.55-4.31.02-8.61,0-12.92,0-1.02,0-1,0-1.02,1.03,0,.37.14.43.46.43,2.25-.01,4.5,0,6.75,0Z"/>
        <path class="cls-1" d="M27.61,26.02c-4.13,0-8.26,0-12.38,0-.91,0-1.09-.18-1.09-1.09,0-.8,0-1.6,0-2.4,0-.58.26-.83.84-.86.04,0,.09,0,.13,0,.99.21,1.5-.28,1.98-1.12,1.47-2.6,3.04-5.14,4.59-7.69.14-.24.21-.47.21-.75-.01-1.02,0-2.04,0-3.06,0-.61.13-.79.74-.9.34-.06.26-.32.22-.47-.09-.33.3-.81-.22-.99-.51-.18-.76-.38-.72-.79.04-.42.35-.66.89-.66,3.25,0,6.51,0,9.76,0,.52,0,.83.23.88.62.06.42-.2.63-.72.83-.5.19-.14.69-.22,1.04-.04.16-.09.37.22.43.59.1.73.29.73.9,0,1.04,0,2.07,0,3.11,0,.25.06.46.19.67,1.71,2.84,3.41,5.67,5.11,8.52.15.25.31.35.6.33.32-.02.65-.01.98,0,.6.02.87.28.87.87,0,.84,0,1.69,0,2.53,0,.72-.23.95-.96.95-4.2,0-8.4,0-12.6,0ZM37.22,21.67c-.13-.22-.2-.36-.28-.5-1.56-2.6-3.11-5.2-4.67-7.79-.18-.3-.27-.61-.27-.96.02-.83,0-1.66,0-2.48,0-.26-.05-.36-.34-.36-2.68.01-5.35,0-8.03,0-.25,0-.33.07-.33.33.01.75-.02,1.51.01,2.26.03.54-.13,1-.41,1.46-1.53,2.51-3.03,5.04-4.54,7.56-.08.13-.26.27-.19.42.08.15.29.07.45.07,6.02,0,12.04,0,18.06,0h.53ZM27.7,23.13c-3.73,0-7.45,0-11.18,0-.94,0-.92,0-.95.95-.01.4.09.51.5.51,7.57-.01,15.15,0,22.72,0,.94,0,.92,0,.95-.94.01-.4-.09-.52-.5-.52-3.85.02-7.69,0-11.54,0ZM27.66,8.14h2.39c.98,0,.96,0,.98-1,0-.36-.08-.48-.46-.47-1.74.02-3.49,0-5.23,0-1.09,0-1.07,0-1.07,1.09,0,.33.12.39.41.38.99-.01,1.98,0,2.97,0Z"/>
      </g>
    </g>
  </g>
</svg>