<?xml version="1.0" encoding="UTF-8"?>
<svg id="Camada_2" data-name="Camada 2" xmlns="http://www.w3.org/2000/svg" viewBox="0 0 55 55">
  <defs>
    <style>
      .cls-1 {
        fill: #ffe4b8;
      }

      .cls-1, .cls-2 {
        stroke-width: 0px;
      }

      .cls-2 {
        fill: #d99414;
      }
    </style>
  </defs>
  <g id="Camada_1-2" data-name="Camada 1">
    <g>
      <rect class="cls-2" width="55" height="55" rx="9.34" ry="9.34"/>
      <g>
        <path class="cls-1" d="M38.44,28.04c-.42.72-.75.83-1.55.53-1.59-.59-3.18-1.17-4.84-1.51-1.63-.34-3.22-.26-4.78.37-.79.32-1.6.6-2.42.88-1.73.58-3.45.55-5.17-.06-.69-.24-1.39-.47-2.06-.75-1.73-.73-3.49-.78-5.29-.37-1.6.36-3.12.93-4.65,1.5-.22.08-.44.14-.67.09-.39-.09-.69-.42-.73-.81-.04-.39.15-.8.53-.95,2.56-.99,5.12-1.96,7.93-1.98.22,0,.28-.06.28-.28,0-4.52,0-9.05,0-13.57,0-1.07-.8-1.91-1.83-1.93-1.05-.03-1.88.77-1.94,1.85-.03.59-.44.99-.97.97-.54-.02-.92-.45-.91-1.03.02-1.88,1.56-3.52,3.47-3.67,1.92-.15,3.71,1.22,4.01,3.1.15.95.04,1.9.06,2.85.01.64,0,.64.63.64,3.31,0,6.62,0,9.93,0,.33,0,.39-.1.38-.4-.02-.78,0-1.57,0-2.36,0-1.1-.79-1.94-1.83-1.97-1.07-.03-1.88.76-1.94,1.88-.03.56-.44.96-.97.95-.53-.01-.91-.44-.92-1,0-1.85,1.45-3.45,3.37-3.7,1.78-.23,3.58,1.01,4.04,2.78.1.37.13.74.13,1.12,0,4.46,0,8.92,0,13.38,0,.31.08.37.38.37,1.66.01,3.26.39,4.82.9.87.29,1.73.62,2.61.91.42.14.75.35.94.75v.5ZM22.35,23.33c-1.73,0-3.45,0-5.18,0-.16,0-.3-.02-.29.23.02.51.01,1.02,0,1.54,0,.14.05.2.18.24.93.26,1.82.62,2.72.96,1.46.55,2.92.75,4.44.24,1.15-.38,2.26-.87,3.43-1.2.16-.05.17-.14.17-.28,0-.48-.02-.96,0-1.44.01-.24-.07-.29-.3-.29-1.73,0-3.45,0-5.18,0ZM22.32,17.67c1.74,0,3.48,0,5.21,0,.24,0,.3-.06.29-.29-.02-.43-.02-.86,0-1.29.01-.24-.05-.32-.3-.32-1.52.01-3.04,0-4.55,0-1.94,0-3.87,0-5.81,0-.22,0-.29.06-.28.28.02.43.02.86,0,1.29-.01.26.05.33.32.33,1.71-.01,3.41,0,5.12,0ZM22.32,21.44c1.74,0,3.48,0,5.21,0,.24,0,.3-.06.29-.3-.02-.43-.02-.86,0-1.29.01-.24-.05-.32-.31-.32-1.49.01-2.97,0-4.46,0-1.96,0-3.91,0-5.87,0-.25,0-.32.07-.31.31.02.42.02.84,0,1.26-.01.26.05.33.32.33,1.71-.01,3.41,0,5.12,0Z"/>
        <path class="cls-1" d="M38.44,31.94c-.37.72-.73.85-1.51.57-1.51-.55-3.02-1.1-4.6-1.46-1.84-.42-3.62-.32-5.38.42-1,.42-2.02.79-3.09,1.03-1.46.32-2.87.14-4.26-.35-.81-.28-1.62-.57-2.42-.88-1.43-.55-2.89-.59-4.39-.31-1.71.32-3.32.92-4.94,1.52-.11.04-.21.08-.32.12-.52.16-1.03-.07-1.21-.55-.19-.49.05-1.02.57-1.22,1.27-.48,2.54-.96,3.85-1.33,1.49-.41,3-.68,4.55-.58,1.09.07,2.11.42,3.12.8.55.2,1.1.39,1.65.6,1.57.61,3.12.55,4.69-.04,1.03-.39,2.05-.8,3.1-1.1,1.61-.46,3.21-.32,4.82.01,1.77.37,3.45,1.01,5.14,1.63.32.12.48.38.62.67v.44Z"/>
        <path class="cls-1" d="M17.28,33.7c.82-.01,1.59.2,2.35.48.7.25,1.38.55,2.11.71.64.14,1.25.03,1.85-.17.77-.25,1.52-.59,2.31-.81,1.2-.35,2.38-.2,3.57.08,1.06.25,2.08.62,3.1,1.01.55.22.8.73.6,1.23-.19.5-.72.73-1.27.53-1.13-.42-2.25-.83-3.44-1.06-.93-.18-1.82-.1-2.71.24-.75.29-1.5.59-2.28.78-1.16.28-2.26.06-3.35-.35-.7-.26-1.37-.57-2.11-.71-.95-.19-1.88-.01-2.78.28-.86.27-1.7.59-2.55.87-.42.14-.86-.06-1.07-.45-.21-.37-.14-.82.17-1.13.09-.09.19-.16.31-.2,1.2-.4,2.37-.9,3.61-1.15.52-.11,1.05-.16,1.59-.17Z"/>
      </g>
      <path class="cls-1" d="M48.68,32.76c-.52-2.93-1.91-5.37-4.13-7.33-1.89-1.67-4.09-2.69-6.58-3.01-1.61-.2-3.13-.13-4.58.19,1.66.85,3.16,1.98,4.54,3.27.63-.46,1.26-.91,1.89-1.37.1-.07.18-.08.29-.04,2.14.82,3.88,2.15,5.22,4.02.06.09.08.16.05.27-.33,1.01-.66,2.01-.98,3.02-.04.13-.11.18-.23.22-1.12.36-2.24.72-3.36,1.09-.23.6-.6,1.17-1.1,1.66-2.33,2.27-4.74,3.71-7.25,4.55-.62.85-1.24,1.7-1.85,2.55-.09.12-.17.17-.32.17-.41,0-.82,0-1.23,0s-.84,0-1.26,0c-.13,0-.21-.03-.29-.14-.4-.52-.74-1.06-1.04-1.62-.56,0-1.12,0-1.69-.03,1.57,3.39,4.59,6.07,8.44,6.99.68.16,1.37.28,2.07.32.07,0,.14.03.22.04h1.48c.48-.09.96-.1,1.44-.19,2.65-.47,4.92-1.66,6.81-3.57,1.8-1.82,2.94-4,3.43-6.51.09-.45.15-.91.18-1.37,0-.09.03-.17.04-.26v-1.48c-.09-.48-.1-.96-.19-1.44ZM40.72,43.07c-.25.73-.48,1.47-.72,2.2-.04.13-.11.2-.24.24-2.36.77-4.71.77-7.07,0-.13-.04-.2-.1-.25-.23-.23-.74-.48-1.49-.72-2.23-.04-.12-.03-.21.05-.32.72-.98,1.43-1.97,2.15-2.95.08-.11.17-.15.31-.15.67,0,1.33,0,2,0s1.33,0,2,0c.15,0,.24.05.33.17.7.97,1.41,1.95,2.12,2.91.09.12.11.21.06.36ZM45.96,40.38c-.3.53-.65,1.03-1.02,1.51-.08.1-.16.12-.28.12-.42,0-.84,0-1.26,0-.42,0-.84,0-1.26,0-.13,0-.21-.04-.28-.15-.71-.99-1.43-1.97-2.14-2.96-.07-.1-.09-.17-.05-.29.42-1.29.84-2.58,1.25-3.87.04-.12.11-.18.23-.22,1.16-.37,2.31-.75,3.47-1.13.12-.04.21-.03.31.05.76.56,1.53,1.12,2.29,1.67.12.08.15.17.14.31-.09,1.76-.55,3.41-1.42,4.95Z"/>
    </g>
  </g>
</svg>