<?xml version="1.0" encoding="UTF-8"?>
<svg id="Camada_2" data-name="Camada 2" xmlns="http://www.w3.org/2000/svg" viewBox="0 0 55 55">
  <defs>
    <style>
      .cls-1 {
        fill: #ffe4b8;
      }

      .cls-1, .cls-2 {
        stroke-width: 0px;
      }

      .cls-2 {
        fill: #6c553b;
      }
    </style>
  </defs>
  <g id="Camada_1-2" data-name="Camada 1">
    <g>
      <rect class="cls-2" width="55" height="55" rx="9.34" ry="9.34"/>
      <g>
        <path class="cls-1" d="M16.71,27.5c-.96-.59-1.86-1.14-2.75-1.69-1.77-1.09-3.53-2.17-5.29-3.26-.89-.55-1.32-1.53-1.13-2.48.21-1.04.96-1.8,2-1.96.94-.14,1.8.15,2.58.68,2.83,1.92,5.66,3.84,8.48,5.77.33.23.55.22.88.01,6.9-4.26,13.81-8.5,20.71-12.75.34-.21.68-.38,1.08-.45.77-.14,1.5.24,1.79.93.29.69.08,1.44-.57,1.89-1.28.89-2.57,1.75-3.85,2.63-5.11,3.47-10.22,6.94-15.33,10.41-.38.26-.38.26.02.53,6.31,4.29,12.63,8.58,18.95,12.87.48.32.84.7.9,1.3.11,1.04-.83,1.87-1.9,1.69-.44-.08-.81-.28-1.19-.51-6.87-4.23-13.74-8.45-20.61-12.69-.33-.2-.55-.22-.88,0-2.82,1.94-5.65,3.85-8.47,5.77-.77.52-1.6.81-2.53.7-1.02-.13-1.8-.88-2.02-1.88-.22-.99.18-1.98,1.07-2.54,1.23-.78,2.48-1.53,3.72-2.29,1.43-.88,2.86-1.76,4.36-2.68ZM17.68,30.78c.1-.07.22-.14.33-.22,7.81-5.3,15.61-10.61,23.42-15.91.24-.17.36-.27.16-.58-.23-.36-.38-.06-.53.03-5.05,3.1-10.09,6.2-15.13,9.3-3.04,1.87-6.08,3.74-9.12,5.61-.25.15-.34.26-.12.52.28.33.51.7.76,1.05.05.08.09.18.23.19ZM22.26,29.3c.11.08.19.14.27.2,6.21,3.82,12.42,7.64,18.63,11.47.23.14.33.13.48-.1.2-.31-.02-.38-.2-.51-2.83-1.92-5.65-3.84-8.48-5.76-2.98-2.02-5.95-4.04-8.93-6.06-.14-.09-.26-.27-.48-.11-.42.3-.85.58-1.3.89ZM10.06,19.43c-.61,0-1.01.27-1.17.75-.15.47.02.94.49,1.23,1.9,1.18,3.82,2.35,5.72,3.53.2.12.28.07.4-.1.27-.39.54-.78.83-1.16.16-.2.14-.3-.08-.45-1.67-1.12-3.34-2.26-5.01-3.39-.38-.26-.8-.39-1.18-.41ZM10.06,35.57c.3-.02.69-.09,1.02-.31,1.76-1.18,3.5-2.37,5.26-3.55.13-.09.16-.16.06-.29-.32-.43-.63-.86-.93-1.3-.1-.15-.19-.15-.34-.06-1.93,1.19-3.86,2.38-5.79,3.57-.44.28-.59.75-.44,1.21.16.46.55.74,1.16.74ZM19.76,25.62c-.68-.47-1.31-.89-1.93-1.32-.14-.1-.23-.11-.34.05-.28.41-.58.82-.88,1.23-.11.15-.09.23.07.32.39.22.77.46,1.14.7.12.08.23.08.35,0,.51-.32,1.02-.63,1.59-.98ZM43.82,12.89c-.04-.17-.16-.21-.31-.19-.26.03-.45.2-.68.31-.25.12-.15.26-.07.43.12.23.24.15.39.04.17-.12.34-.24.52-.35.08-.06.15-.12.15-.24ZM43.35,42.27c.25.04.37.03.43-.11.06-.13-.01-.22-.11-.29-.21-.14-.42-.28-.62-.43-.13-.09-.21-.05-.26.07-.05.13-.27.24-.07.39.22.17.46.32.63.36Z"/>
        <path class="cls-1" d="M31.71,27.48c.01-1.9,1.94-3.19,3.7-2.46.29.12.37.14.46-.21.4-1.61,2.09-2.44,3.63-1.78.28.12.33.07.4-.21.41-1.64,2.08-2.47,3.65-1.81.23.1.31.11.38-.18.28-1.15,1.19-1.94,2.32-2.06,1.07-.12,2.14.46,2.65,1.43.53,1,.38,2.15-.4,3.04-.15.17-.17.25,0,.43.97,1.11.97,2.5,0,3.62-.13.15-.17.22-.02.4,1,1.16,1,2.5,0,3.65-.15.17-.14.24,0,.4.81.93.95,2.07.42,3.08-.52.98-1.61,1.55-2.69,1.42-1.13-.15-2-.93-2.29-2.1-.06-.24-.13-.24-.33-.16-1.67.68-3.25-.12-3.71-1.87-.05-.2-.1-.24-.3-.16-1.74.68-3.26-.08-3.73-1.88-.09-.35-.24-.16-.39-.1-1.82.74-3.75-.55-3.74-2.49ZM43.83,27.51c0-.73-.59-1.34-1.32-1.36-.75-.01-1.37.6-1.37,1.35,0,.73.61,1.34,1.34,1.34.74,0,1.34-.6,1.35-1.33ZM42.48,32.88c.74,0,1.34-.6,1.35-1.33,0-.75-.61-1.37-1.36-1.36-.73,0-1.33.62-1.33,1.35,0,.73.61,1.34,1.34,1.34ZM37.1,29.51c0,.73.6,1.34,1.32,1.35.74,0,1.35-.58,1.36-1.31.02-.75-.59-1.37-1.34-1.37-.73,0-1.34.6-1.34,1.33ZM34.41,28.84c.74,0,1.34-.59,1.35-1.33,0-.75-.61-1.37-1.36-1.36-.73,0-1.33.61-1.33,1.35,0,.73.61,1.34,1.34,1.34ZM41.14,23.45c0,.74.59,1.34,1.32,1.35.75.01,1.37-.61,1.36-1.36,0-.74-.61-1.33-1.34-1.33-.73,0-1.34.61-1.34,1.33ZM38.46,26.83c.73,0,1.33-.61,1.33-1.35,0-.75-.62-1.36-1.38-1.34-.73.02-1.32.64-1.31,1.37.02.73.62,1.33,1.36,1.32ZM46.53,22.79c.73,0,1.33-.61,1.33-1.35,0-.73-.6-1.34-1.33-1.34-.75,0-1.36.61-1.35,1.37.01.73.62,1.33,1.36,1.32ZM46.51,26.83c.73,0,1.34-.59,1.35-1.33.01-.73-.58-1.35-1.31-1.36-.75-.01-1.37.6-1.37,1.35,0,.73.6,1.34,1.34,1.34ZM46.51,30.86c.73,0,1.34-.59,1.36-1.32.01-.73-.58-1.35-1.31-1.36-.75-.02-1.38.59-1.38,1.34,0,.73.6,1.34,1.33,1.34ZM47.86,33.55c0-.73-.61-1.33-1.34-1.33-.74,0-1.34.6-1.35,1.33,0,.75.61,1.37,1.36,1.36.73-.01,1.33-.62,1.32-1.35Z"/>
        <path class="cls-1" d="M10.19,30.19c-1.48,0-2.7-1.21-2.69-2.7,0-1.47,1.2-2.67,2.67-2.68,1.49,0,2.71,1.2,2.71,2.68,0,1.49-1.2,2.7-2.69,2.7ZM10.2,28.84c.74,0,1.33-.61,1.33-1.34,0-.75-.62-1.36-1.37-1.34-.73.02-1.32.63-1.31,1.36,0,.73.63,1.33,1.35,1.32Z"/>
      </g>
    </g>
  </g>
</svg>