<?xml version="1.0" encoding="UTF-8"?>
<svg id="Camada_2" data-name="Camada 2" xmlns="http://www.w3.org/2000/svg" xmlns:xlink="http://www.w3.org/1999/xlink" viewBox="0 0 335.9 273.61">
  <defs>
    <style>
      .cls-1 {
        fill: #ffe4b8;
      }

      .cls-1, .cls-2 {
        stroke-width: 0px;
      }

      .cls-2 {
        fill: none;
      }

      .cls-3 {
        clip-path: url(#clippath-1);
      }

      .cls-4 {
        clip-path: url(#clippath);
      }
    </style>
    <clipPath id="clippath">
      <rect class="cls-2" width="335.9" height="273.61"/>
    </clipPath>
    <clipPath id="clippath-1">
      <rect class="cls-2" width="335.9" height="273.61"/>
    </clipPath>
  </defs>
  <g id="Camada_1-2" data-name="Camada 1">
    <g id="Arte_42" data-name="Arte 42">
      <g class="cls-4">
        <g class="cls-3">
          <path class="cls-1" d="M37.84,126.74l-8.79,26.05c-3.13.39-5.85.48-8.99.29l-7.4-14.02,1.4,27.64c-3.69.41-9.47.6-13.31.44L0,117.35c4.5-2.27,7.94-4.5,12.28-6.16l10.55,23.1,11.49-34.03c5.34-2.63,9.92-4.87,15.31-7.5v72.75c-3.69.41-10.32.64-14.16.47l2.38-39.25Z"/>
          <path class="cls-1" d="M84.11,76.64c6.23-2.07,8.7-2.66,13.17-3.62v78.33c.15,10.06-7.74,13.74-19.72,14.14-12.12.4-21.18-2.77-21.34-12.82l-.28-63.43c4.42-2.17,9.69-4.71,13.3-6.43l.25,66.73c.06,3.94,4.27,4.34,7.89,4.22,3.55-.12,6.75-.73,6.69-4.67l.04-72.45Z"/>
          <path class="cls-1" d="M103.93,86.23c-.02-1.51.16-4.61,2.04-7.75,2.15-3.6,5.3-5.17,6.92-5.96,7.94-3.85,17.87-.98,21.28.17,2.45.83,4.39,1.79,5.69,2.51.86.85,5.76,5.86,5.48,13.46-.25,6.51-4.22,12.46-10.3,15.53-1.2-.52-3.55-1.74-5.56-4.25-1.85-2.31-2.55-4.62-2.83-5.88,1.02-.83,2.14-1.87,3.27-3.16,1.64-1.87,2.79-3.71,3.6-5.23-4.4-4.02-11.33-4.43-14.1-1.99-1.76,1.55-2.07,3.93-2.13,5.12l-.16,58.14c.08,5.25,5.6,5.33,11.11,5.15,2.93-.1,7.37-.9,10.85-1.67.45.87,1.28,2.78,1.12,5.29-.22,3.51-2.23,5.78-2.84,6.43-3.01.9-6.85,1.69-11.31,1.76-5.07.09-15.86.25-20.3-6.52-1.17-1.78-1.83-3.97-1.87-6.65l.06-64.48Z"/>
          <path class="cls-1" d="M173.77,153.14l-13.93.46-2.17,8.38c-3.83.42-9.82.61-13.66.45,4.9-27.14,9.8-54.29,14.69-81.43,1.85.67,3.72,1.35,5.61,2.06,2.2.83,4.35,1.66,6.48,2.49,6.4,25.12,12.8,50.24,19.2,75.36-3.83.42-9.96.62-13.8.45l-2.43-8.23ZM165.42,111.57c-.92,10.33-1.84,20.66-2.76,30.99l7.94-.26c-1.73-10.25-3.45-20.49-5.18-30.73"/>
          <path class="cls-1" d="M229.41,131.54l-5.98,14.87c-3.13.4-5.85.48-8.99.3l-8.91-20.94,2.91,34.56c-3.69.41-9.47.6-13.31.44l-1.93-67.29c5.17,1.51,7.13,2.31,13.85,3.84l11.12,30.25,9.7-25.54c5.48,1.1,9.78,2.17,13.81,2.75l1.46,54.41c-3.69.41-9.47.6-13.31.44l-.43-28.07Z"/>
          <path class="cls-1" d="M288.81,145.79c.13,8.45-6.23,12.09-16.05,12.41l-20.83.68-.76-52.6,14.87,1.71c1.88.22,3.76.31,5.65.36,8.84.24,15.21,3.55,15.33,11.1l.05,3.21c.08,5.03-2.25,8.02-6.34,9.54,4.97,1.15,7.94,4.26,8.04,10.38l.05,3.21ZM273.74,122.44c-.04-2.48-2.28-2.91-5.69-2.8l-3.41.11.13,8.53,3.41-.11c3.41-.11,5.64-.48,5.6-3.03l-.04-2.7ZM275.42,140.91c-.04-2.91-2.56-3.34-5.63-3.24l-4.88.16.14,9.33,4.95-.16c3.2-.1,5.49-.84,5.45-3.53l-.04-2.55Z"/>
          <path class="cls-1" d="M335.9,143.59c.15,10.06-7.81,13.67-19.93,14.07-12.12.4-20.19-2.69-20.34-12.75l-.38-24.85c-.15-9.98,7.81-13.6,19.93-14,12.12-.4,20.19,2.69,20.34,12.68l.38,24.85ZM322.25,121.8c-.06-4.01-3.27-4.34-6.9-4.22-3.62.12-6.82.66-6.76,4.67l.3,19.46c.06,4.01,3.27,4.34,6.9,4.22,3.62-.12,6.82-.66,6.76-4.67l-.3-19.46Z"/>
          <path class="cls-1" d="M253.16,44.78c-1.38-1.26-2.74-2.21-4.14-.69l-6.76,7.39c-1.39,1.52-.33,2.8,1.05,4.06s2.74,2.21,4.14.69l6.76-7.39c1.39-1.52.33-2.8-1.05-4.06"/>
          <polygon class="cls-1" points="152.43 24.37 156.48 23.8 153.43 16.77 152.43 24.37"/>
          <path class="cls-1" d="M130.75,21.97c-.69-1.9-2.4-1.56-4.35-.85l-1.75.64,1.82,5.01,1.75-.64c1.96-.71,3.48-1.55,2.79-3.45l-.26-.71Z"/>
          <path class="cls-1" d="M165.65.08c-58.33,1.96-106.92,40.17-124.82,92.28,13.47-6.64,29.28-14.35,43.9-21.24,5.75-2.71,11.45-4.64,17.11-5.91,16.98-16.23,39.76-26.53,65.08-27.38,42.17-1.43,79.08,23.73,94.59,60.42,12.78,1.79,23.9,2.55,30.96,1.78,2.99-.32,6.14-.6,9.35-.85C284.99,40.18,229.73-2.08,165.65.08M77.28,63.58c-3.35-.85-6.72-2.57-6.54-3.22.25-.91,7.38.4,7.8.48,2.64.49,8.53,1.82,8.42,2.68-.1.77-5.01,1.24-9.68.07M93.45,56.47c-.31.71-5.15-.29-9.26-2.79-2.96-1.79-5.67-4.43-5.3-5,.51-.79,6.94,2.56,7.3,2.75,2.38,1.25,7.61,4.25,7.26,5.04M100.29,49.83c-.41.65-5.05-1.04-8.76-4.11-2.66-2.21-4.95-5.21-4.51-5.72.62-.71,6.49,3.55,6.82,3.79,2.18,1.59,6.91,5.32,6.45,6.05M108.42,44.9c-.64.44-4.22-2.96-6.41-7.25-1.57-3.09-2.49-6.75-1.88-7.05.85-.41,4.55,5.83,4.77,6.19,1.36,2.32,4.23,7.62,3.52,8.11M136.76,38.3c-2.08-2.16-4.49-4.47-7.12-6.47l-1.18.43,2.91,8c-1.87.84-4.46,1.78-6.44,2.33l-8.74-24.07,8.29-3.02c6.1-2.21,10.5-1.97,12.13,2.5l1.41,3.88c1.04,2.86.12,5.07-2.19,6.9,2.83,2.13,5.48,4.68,7.75,7.05-1.87.84-4.83,1.91-6.8,2.47M160.55,33.23l-1.76-4.07-7.11.99-.58,4.4c-1.93.42-4.99.85-6.96.97l4.91-26.55c2-.43,4.49-.78,6.53-.91l12,24.18c-1.93.43-5.06.86-7.03.99M189.63,34.16c-2.55-.07-4.91-.28-7.44-.65l-5.3-13.94-1.16,13.37c-2.16.04-4.7-.18-6.83-.6l2.22-25.52c2.38.06,4.94.28,7.29.63l5.41,14.33,1.2-13.75c2.44.07,4.59.25,6.83.6l-2.22,25.52ZM209.68,39.61c-2.92-.16-5.55-.62-7.3-1.17-6.07-1.88-9.6-4.78-8-9.94l3.64-11.75c1.6-5.16,6.16-5.55,12.22-3.67,2.02.62,3.85,1.39,6.27,2.66-.32,1.63-1.04,3.96-1.7,5.48-1.82-.92-3.55-1.62-5.16-2.12-2.71-.84-4.75-1.39-5.54,1.15l-2.68,8.63c-.8,2.57,1.18,3.31,3.89,4.15,1.44.45,3.73.81,5.55,1.02-.18,1.79-.63,3.73-1.2,5.56M223.64,47.7l4.85-8.63-5.78-3.25-4.85,8.64c-1.73-.8-4.32-2.26-5.97-3.36l12.55-22.32c1.79.83,4.38,2.3,5.97,3.35l-4.61,8.21,5.78,3.25,4.61-8.21c1.8.84,4.39,2.3,5.97,3.35l-12.55,22.33c-1.73-.8-4.32-2.26-5.97-3.35M239.23,59.99c-4.6-4.21-6.48-8.27-2.99-12.09l8.63-9.43c3.47-3.8,7.68-2.28,12.28,1.93,4.6,4.21,6.48,8.27,3.01,12.06l-8.63,9.44c-3.49,3.82-7.7,2.3-12.31-1.91M259.46,71.54c-.56-.54,2.05-4.74,5.81-7.74,2.7-2.16,6.11-3.8,6.52-3.26.57.75-4.8,5.63-5.1,5.91-1.99,1.8-6.61,5.68-7.23,5.08M265.94,81.16c-.39-.67,3.25-4,7.68-5.88,3.19-1.35,6.91-1.99,7.16-1.37.35.88-6.13,4.13-6.51,4.31-2.41,1.21-7.9,3.69-8.33,2.94M278.73,90.82c-2.66.43-8.63,1.18-8.83.34-.18-.76,4.3-2.86,9.08-3.34,3.44-.35,7.19.14,7.24.81.07.94-7.08,2.13-7.49,2.19"/>
          <path class="cls-1" d="M264.86,166.2c-12.16,39.13-48,68.12-91.26,69.58-43.32,1.46-81.08-25.12-95.8-63.44l-39.32,1.29c16.54,59.41,72.02,102.08,136.4,99.91,64.29-2.17,116.71-48.35,129.31-108.62l-39.32,1.29ZM53.09,184.52c-.26-.91,6.5-3.52,6.89-3.67,2.51-.96,8.22-2.92,8.58-2.13.33.7-3.62,3.68-8.21,5.12-3.3,1.04-7.07,1.33-7.26.68M55.89,190.67c-.31-.89,6.3-3.86,6.68-4.03,2.46-1.1,8.05-3.34,8.45-2.58.36.69-3.42,3.86-7.93,5.55-3.24,1.21-6.99,1.7-7.21,1.06M58.98,196.62c-.36-.87,6.09-4.19,6.46-4.38,2.4-1.22,7.87-3.76,8.31-3.02.4.67-3.21,4.04-7.63,5.96-3.17,1.38-6.89,2.07-7.15,1.44M62.35,202.36c-.4-.85,5.87-4.5,6.23-4.71,2.33-1.35,7.66-4.17,8.14-3.45.43.64-3,4.2-7.31,6.35-3.1,1.54-6.77,2.42-7.06,1.81M65.99,207.89c-.45-.83,5.62-4.8,5.97-5.02,2.26-1.47,7.43-4.56,7.95-3.87.46.62-2.77,4.35-6.97,6.72-3.01,1.7-6.64,2.77-6.96,2.18M69.9,213.19c-.49-.81,5.37-5.08,5.71-5.33,2.18-1.58,7.19-4.94,7.74-4.27.5.6-2.55,4.49-6.61,7.07-2.92,1.86-6.49,3.11-6.84,2.53M74.06,218.26c-.53-.78,5.1-5.35,5.43-5.61,2.09-1.69,6.92-5.3,7.51-4.66.53.57-2.31,4.61-6.24,7.4-2.82,2-6.32,3.44-6.7,2.88M78.45,223.09c-.57-.75,4.82-5.6,5.13-5.88,2-1.79,6.64-5.65,7.26-5.04.55.54-2.07,4.72-5.85,7.71-2.72,2.15-6.14,3.76-6.54,3.22M83.07,227.68c-.61-.72,4.53-5.84,4.83-6.14,1.91-1.9,6.35-5.98,6.99-5.41.58.51-1.83,4.82-5.45,7.99-2.6,2.28-5.93,4.06-6.37,3.55M87.91,232.01c-.64-.69,4.23-6.06,4.51-6.37,1.81-1.99,6.04-6.29,6.71-5.75.61.48-1.58,4.91-5.04,8.26-2.49,2.41-5.72,4.36-6.18,3.87M92.95,236.09c-.68-.66,3.92-6.27,4.18-6.59,1.71-2.08,5.71-6.59,6.41-6.09.63.45-1.33,4.98-4.61,8.51-2.36,2.53-5.49,4.64-5.98,4.17M98.19,239.9c-.71-.62,3.59-6.46,3.84-6.8,1.6-2.16,5.37-6.87,6.1-6.4.65.42-1.08,5.04-4.18,8.73-2.23,2.65-5.25,4.92-5.76,4.47M103.6,243.44c-.74-.59,3.26-6.63,3.49-6.98,1.49-2.24,5.01-7.13,5.76-6.7.67.39-.82,5.09-3.73,8.93-2.09,2.76-5,5.18-5.52,4.76M109.19,246.7c-.77-.55,2.92-6.79,3.13-7.15,1.37-2.31,4.65-7.38,5.42-6.99.69.35-.56,5.13-3.27,9.11-1.95,2.86-4.73,5.42-5.28,5.03M114.93,249.68c-.79-.51,2.57-6.93,2.77-7.3,1.26-2.38,4.27-7.6,5.06-7.25.71.32-.3,5.15-2.81,9.26-1.8,2.96-4.45,5.65-5.01,5.29M120.82,252.36c-.82-.47,2.22-7.05,2.39-7.43,1.13-2.44,3.87-7.81,4.68-7.5.72.28-.04,5.16-2.33,9.39-1.65,3.04-4.15,5.87-4.74,5.54M126.85,254.74c-.84-.43,1.85-7.16,2.01-7.54,1.01-2.5,3.47-8,4.29-7.73.74.24.22,5.15-1.85,9.5-1.49,3.12-3.85,6.08-4.45,5.77M137.14,250.81c-1.33,3.2-3.53,6.27-4.15,5.99-.86-.38,1.48-7.24,1.62-7.64.88-2.54,3.05-8.17,3.89-7.94.75.2.49,5.14-1.36,9.58M143.07,252.36c-1.16,3.26-3.2,6.44-3.83,6.2-.88-.34,1.11-7.31,1.22-7.71.74-2.59,2.63-8.31,3.47-8.13.76.16.75,5.1-.86,9.64M149.09,253.61c-.99,3.32-2.86,6.6-3.51,6.39-.9-.29.73-7.36.82-7.76.61-2.62,2.19-8.44,3.05-8.3.77.13,1.02,5.06-.36,9.67M155.17,254.54c-.82,3.36-2.51,6.74-3.17,6.57-.91-.24.34-7.38.41-7.8.47-2.65,1.75-8.54,2.61-8.45.77.09,1.28,5,.14,9.68M161.31,255.14c-.64,3.4-2.16,6.86-2.82,6.72-.92-.19-.05-7.39,0-7.81.33-2.67,1.3-8.62,2.16-8.57.77.04,1.54,4.92.65,9.65M167.49,255.43c-.46,3.43-1.79,6.97-2.46,6.86-.93-.15-.44-7.38-.41-7.8.19-2.68.84-8.68,1.71-8.67.77,0,1.8,4.84,1.16,9.61M173.76,255.37c-.27,3.45-1.42,7.05-2.09,6.98-.94-.1-.83-7.35-.82-7.76.05-2.69.38-8.71,1.24-8.75.77-.04,2.05,4.73,1.67,9.53M180.08,255.01c-.09,3.46-1.04,7.12-1.71,7.09-.94-.04-1.22-7.29-1.24-7.71-.1-2.69-.09-8.72.77-8.81.77-.08,2.3,4.62,2.18,9.43M185.07,261.43c-.94,0-1.61-7.22-1.64-7.63-.24-2.68-.55-8.7.3-8.83.77-.12,2.54,4.49,2.67,9.3.09,3.46-.66,7.16-1.34,7.17M191.7,260.45c-.94.05-1.98-7.12-2.04-7.53-.38-2.66-1.01-8.66-.16-8.84.76-.16,2.78,4.35,3.16,9.15.28,3.45-.28,7.19-.96,7.23M198.24,259.13c-.94.1-2.35-7.01-2.43-7.42-.52-2.64-1.46-8.6-.62-8.82.75-.2,3,4.2,3.63,8.97.46,3.43.1,7.19-.58,7.27M204.65,257.48c-.93.15-2.72-6.87-2.82-7.28-.66-2.61-1.91-8.51-1.08-8.77.74-.24,3.21,4.03,4.1,8.77.63,3.4.47,7.18-.2,7.29M210.92,255.51c-.92.2-3.07-6.73-3.19-7.12-.79-2.57-2.34-8.4-1.54-8.71.72-.28,3.42,3.86,4.54,8.54.81,3.37.84,7.14.18,7.29M217.05,253.23c-.91.25-3.41-6.56-3.55-6.95-.92-2.53-2.77-8.27-1.98-8.61.71-.31,3.61,3.68,4.98,8.3.98,3.32,1.21,7.09.56,7.27M223.04,250.65c-.9.29-3.74-6.38-3.9-6.76-1.05-2.48-3.19-8.11-2.42-8.5.69-.35,3.8,3.49,5.4,8.03,1.15,3.26,1.57,7.02.93,7.23M228.87,247.77c-.88.34-4.06-6.18-4.24-6.55-1.17-2.42-3.6-7.94-2.85-8.37.67-.38,3.97,3.29,5.8,7.75,1.32,3.2,1.92,6.93,1.29,7.17M234.53,244.6c-.86.38-4.37-5.96-4.57-6.33-1.3-2.36-4-7.75-3.27-8.21.65-.42,4.13,3.09,6.19,7.44,1.48,3.13,2.27,6.82,1.66,7.1M240.02,241.15c-.84.43-4.67-5.73-4.89-6.09-1.41-2.29-4.39-7.53-3.69-8.04.63-.45,4.28,2.87,6.56,7.12,1.63,3.05,2.62,6.7,2.02,7.01M245.32,237.43c-.82.47-4.95-5.49-5.19-5.83-1.53-2.22-4.76-7.3-4.09-7.84.61-.48,4.42,2.65,6.91,6.78,1.79,2.96,2.95,6.56,2.37,6.89M250.43,233.44c-.79.51-5.22-5.23-5.48-5.56-1.64-2.13-5.13-7.05-4.48-7.62.58-.51,4.55,2.43,7.24,6.42,1.93,2.87,3.28,6.4,2.71,6.77M255.34,229.2c-.77.55-5.48-4.96-5.75-5.28-1.74-2.05-5.48-6.78-4.86-7.38.56-.54,4.67,2.19,7.56,6.04,2.08,2.77,3.6,6.23,3.05,6.62M260.03,224.7c-.74.59-5.73-4.68-6.01-4.98-1.85-1.96-5.82-6.49-5.23-7.13.53-.57,4.78,1.95,7.86,5.65,2.22,2.66,3.91,6.04,3.39,6.46M264.5,219.96c-.71.62-5.96-4.38-6.26-4.67-1.94-1.86-6.14-6.19-5.58-6.85.5-.59,4.87,1.71,8.13,5.24,2.35,2.54,4.22,5.83,3.71,6.27M268.73,214.99c-.67.66-6.17-4.07-6.49-4.34-2.04-1.76-6.45-5.87-5.93-6.56.47-.62,4.95,1.46,8.39,4.82,2.47,2.42,4.51,5.61,4.03,6.08M272.71,209.79c-.64.69-6.37-3.74-6.7-4-2.12-1.65-6.74-5.53-6.26-6.25.43-.64,5.02,1.2,8.63,4.38,2.6,2.29,4.79,5.37,4.33,5.86M276.43,204.37c-.6.73-6.56-3.41-6.9-3.65-2.21-1.54-7.02-5.17-6.57-5.91.4-.66,5.07.94,8.84,3.93,2.71,2.15,5.06,5.11,4.63,5.63M279.89,198.75c-.56.76-6.73-3.07-7.08-3.29-2.28-1.42-7.28-4.81-6.87-5.57.37-.68,5.11.68,9.03,3.47,2.82,2.01,5.32,4.84,4.91,5.38M283.06,192.92c-.52.78-6.88-2.71-7.24-2.91-2.35-1.3-7.52-4.42-7.15-5.2.33-.7,5.14.41,9.2,3,2.92,1.86,5.56,4.56,5.19,5.12M285.94,186.9c-.48.81-7.01-2.35-7.38-2.53-2.42-1.18-7.74-4.02-7.41-4.82.29-.72,5.16.14,9.35,2.51,3.01,1.71,5.79,4.26,5.45,4.84M281.01,178.55c-2.48-1.05-7.94-3.61-7.65-4.42.26-.73,5.16-.13,9.46,2.01,3.1,1.54,6.01,3.95,5.7,4.55-.44.83-7.12-1.98-7.51-2.14"/>
          <path class="cls-1" d="M206.43,209.35v-13.93h11.77l-.33-.16-1.1-.55-13.33-6.67h0l-13.12-6.57h-32.69l10.33,6.39h0l7.56,7,.88.55h23.07v13.93h-27.22v-13.93h4.15l-1.1-.55-16.59-8.29-10.18-5.09-4.82,2.41-10.75,5.38-12.31,6.15h6.97v13.93c-4.05-.05-8.1-.1-12.14-.14,8.18,5.94,15.86,9.57,21.9,11.86,6.4,2.43,35.76,12.76,67.51-.09,8.86-3.59,15.63-8.06,20.27-11.6-6.24,0-12.48-.01-18.73-.02M160.98,209.35h-26.39v-13.93h26.39v13.93ZM167.95,209.35h-1.24v-13.93h1.24v13.93Z"/>
          <path class="cls-1" d="M157.06,61.57c-.59,2.23-2.65,2.61-5.66,1.81-1.18-.31-2.66-.78-4.04-1.37.11-.87.47-2.22.8-3.03,1.6.63,2.9,1.07,3.98,1.36.79.21,1.43.31,1.58-.26l.14-.54c.17-.63.08-.68-1.08-1.43l-2.38-1.55c-.82-.53-1.3-1.33-.76-3.38l.36-1.38c.6-2.26,2.8-2.57,5.67-1.81,1.29.34,2.39.71,3.88,1.47-.09.86-.43,2.15-.77,2.94-1.56-.72-2.59-1.07-3.78-1.39-.88-.23-1.48-.35-1.64.27l-.11.42c-.14.52,0,.61,1.09,1.38l2.38,1.61c.85.57,1.28,1.32.75,3.34l-.41,1.56Z"/>
          <path class="cls-1" d="M158.04,64.95l4.1-12.93,8.22,2.6c-.17.86-.56,2.07-.91,2.88l-4.76-1.51-.68,2.14,4.58,1.45c-.17.86-.55,2.05-.91,2.86l-4.58-1.45-.68,2.16,4.76,1.51c-.17.86-.56,2.09-.92,2.9l-8.22-2.6Z"/>
          <path class="cls-1" d="M180.56,64.32c-.56,1.51-1.68,2.09-3.24,2.04.42,1.83.61,3.76.72,5.5-1.04-.3-2.61-.88-3.6-1.33-.1-1.58-.28-3.34-.66-5.05l-.62-.23-1.56,4.23c-1.04-.3-2.41-.81-3.4-1.26l4.7-12.72,4.38,1.62c3.22,1.19,4.92,2.79,4.05,5.16l-.76,2.05ZM177.6,61.87c.37-1.01-.43-1.45-1.47-1.84l-.93-.34-.98,2.65.93.34c1.03.38,1.94.57,2.31-.44l.14-.37Z"/>
          <path class="cls-1" d="M192.27,69.03c-.59,1.5-1.73,2.05-3.29,1.97.38,1.84.53,3.78.6,5.51-1.04-.32-2.59-.94-3.57-1.41-.07-1.59-.21-3.35-.55-5.07l-.62-.24-1.66,4.19c-1.04-.32-2.4-.86-3.37-1.33l4.98-12.62,4.35,1.72c3.2,1.26,4.86,2.9,3.93,5.25l-.8,2.03ZM189.36,66.52c.39-1-.4-1.46-1.43-1.87l-.92-.36-1.04,2.62.92.36c1.02.4,1.92.61,2.32-.39l.15-.37Z"/>
          <path class="cls-1" d="M199.29,77.51l-3.59-1.24-1.33,1.94c-1.01-.27-2.56-.8-3.52-1.21l8.69-11.35c1.05.28,2.31.71,3.3,1.14l-.14,14.3c-1.01-.27-2.59-.81-3.56-1.22l.14-2.34ZM199.73,70.37l-2.3,3.35,2.05.71.25-4.05Z"/>
          <path class="cls-1" d="M208.73,82.92l3.63-13.07,4.83,1.34c3.39.94,5.23,2.4,4.5,5.02l-1.68,6.05c-.73,2.62-3.06,2.94-6.47,2l-4.81-1.33ZM217.99,75.97c.29-1.03-.56-1.45-1.64-1.75l-1.34-.37-1.93,6.97,1.34.37c1.08.3,2.02.38,2.3-.6l1.28-4.61Z"/>
          <path class="cls-1" d="M232.84,85.46c-.6,2.67-2.94,3.08-6.16,2.36-3.22-.73-5.15-2.1-4.55-4.77l1.49-6.61c.6-2.65,2.93-3.06,6.16-2.33,3.22.73,5.15,2.1,4.55,4.76l-1.49,6.6ZM230.64,78.75c.24-1.06-.59-1.37-1.55-1.59s-1.84-.29-2.08.77l-1.17,5.17c-.24,1.06.59,1.37,1.55,1.59.96.22,1.84.29,2.08-.77l1.17-5.17Z"/>
        </g>
      </g>
    </g>
  </g>
</svg>