<?xml version="1.0" encoding="UTF-8"?>
<svg id="Camada_2" data-name="Camada 2" xmlns="http://www.w3.org/2000/svg" xmlns:xlink="http://www.w3.org/1999/xlink" viewBox="0 0 210 58.12">
  <defs>
    <style>
      .cls-1 {
        fill: none;
      }

      .cls-1, .cls-2, .cls-3, .cls-4 {
        stroke-width: 0px;
      }

      .cls-5 {
        clip-path: url(#clippath-1);
      }

      .cls-2 {
        fill: #6c553b;
      }

      .cls-6 {
        clip-path: url(#clippath);
      }

      .cls-3 {
        fill: #61824a;
      }

      .cls-4 {
        fill: #b95c41;
      }
    </style>
    <clipPath id="clippath">
      <rect class="cls-1" y="0" width="210" height="58.12"/>
    </clipPath>
    <clipPath id="clippath-1">
      <rect class="cls-1" y="0" width="210" height="58.12"/>
    </clipPath>
  </defs>
  <g id="Camada_1-2" data-name="Camada 1">
    <g id="MARCA_HORIZONTAL_REDUÇÃO" data-name="MARCA HORIZONTAL REDUÇÃO">
      <g class="cls-6">
        <g class="cls-5">
          <path class="cls-3" d="M89.63,16.24c.03,1.66-.87,2.64-2.45,3.18,1.14,1.59,2.1,3.38,2.89,5-1.16.11-2.97.14-4.13.08-.73-1.48-1.6-3.1-2.65-4.59h-.72s.09,4.66.09,4.66c-1.17.11-2.74.14-3.91.08l-.28-13.98,5.03-.1c3.7-.08,6.04.82,6.09,3.42l.05,2.25ZM85.69,15.01c-.02-1.1-1.01-1.23-2.19-1.2l-1.06.02.06,2.91,1.06-.02c1.19-.02,2.17-.19,2.14-1.29v-.41Z"/>
          <path class="cls-3" d="M99.85,21.89l-4.09.08-.63,2.35c-1.12.1-2.88.14-4.01.08l4.59-14.08c1.16-.11,2.6-.13,3.77-.08l5.15,13.88c-1.12.1-2.92.14-4.05.08l-.72-2.32ZM97.66,14.83l-1.09,4.06,2.33-.05-1.25-4.01Z"/>
          <path class="cls-3" d="M109.9,16.69l.15,7.33c-1.23.15-2.68.18-3.91.08l-.28-13.98c1.35-.11,2.82-.14,4.17-.08l3.94,7.45-.15-7.53c1.39-.11,2.62-.13,3.91-.08l.28,13.98c-1.45.11-2.8.14-4.26.09l-3.85-7.25Z"/>
          <path class="cls-3" d="M120.17,13.46c-.06-2.95,2.34-3.94,5.96-4.01,1.21-.02,2.33.05,3.88.29.12.9.15,2.23.06,3.13-1.15-.16-2.22-.22-3.18-.2-1.62.03-2.82.1-2.79,1.55l.1,4.93c.03,1.47,1.24,1.51,2.86,1.48.86-.02,2.17-.23,3.19-.43.22.96.33,2.04.35,3.08-1.61.42-3.12.64-4.16.66-3.62.07-6.06-.82-6.12-3.77l-.14-6.71Z"/>
          <path class="cls-3" d="M140.35,18l-3.79.08.11,5.4c-1.08.1-2.78.14-3.91.08l-.28-13.98c1.12-.1,2.82-.14,3.91-.08l.1,5.14,3.79-.08-.1-5.14c1.12-.1,2.82-.14,3.91-.08l.28,13.98c-1.08.1-2.78.14-3.91.08l-.11-5.4Z"/>
          <path class="cls-3" d="M158.5,19.52c.06,2.82-2.28,3.81-5.84,3.88-3.56.07-5.93-.82-5.99-3.65l-.14-6.98c-.06-2.8,2.28-3.79,5.84-3.86,3.56-.07,5.93.82,5.99,3.63l.14,6.98ZM154.46,13.36c-.02-1.13-.97-1.23-2.03-1.21-1.06.02-2,.16-1.98,1.29l.11,5.46c.02,1.13.97,1.23,2.03,1.21,1.06-.02,2-.16,1.98-1.29l-.11-5.46Z"/>
          <path class="cls-2" d="M172.21,20.64c.03,1.69-1.41,2.37-3.79,2.42-.93.02-2.12-.02-3.26-.15-.1-.64-.12-1.66-.05-2.3,1.31.12,2.36.17,3.22.15.62-.01,1.12-.07,1.11-.5v-.41c-.02-.48-.09-.49-1.1-.79l-2.08-.61c-.72-.2-1.24-.67-1.27-2.23l-.02-1.05c-.03-1.72,1.52-2.37,3.79-2.42,1.02-.02,1.91.02,3.16.26.11.62.13,1.6.04,2.22-1.3-.19-2.13-.23-3.07-.21-.7.01-1.16.05-1.15.52v.32c.01.39.13.43,1.1.75l2.09.66c.75.23,1.22.67,1.25,2.2l.02,1.18Z"/>
          <path class="cls-2" d="M173.77,22.78l-.2-9.93,6.6-.13c.09.64.1,1.57.04,2.21l-3.82.08.03,1.64,3.68-.07c.09.64.1,1.55.04,2.2l-3.68.07.03,1.66,3.82-.08c.09.64.1,1.58.04,2.22l-6.6.13Z"/>
          <path class="cls-2" d="M189.79,16.64c.02,1.18-.62,1.87-1.74,2.26.81,1.13,1.49,2.4,2.05,3.55-.83.07-2.11.1-2.94.06-.52-1.05-1.14-2.2-1.88-3.26h-.51s.07,3.31.07,3.31c-.83.08-1.95.1-2.78.06l-.2-9.93,3.58-.07c2.63-.05,4.29.58,4.33,2.43l.03,1.6ZM186.99,15.76c-.02-.78-.72-.87-1.56-.86l-.76.02.04,2.06.76-.02c.84-.02,1.54-.13,1.52-.92v-.29Z"/>
          <path class="cls-2" d="M199.34,16.44c.02,1.18-.62,1.87-1.74,2.26.81,1.13,1.49,2.4,2.05,3.55-.83.07-2.11.1-2.94.06-.52-1.05-1.14-2.2-1.88-3.26h-.51s.07,3.31.07,3.31c-.83.08-1.95.1-2.78.06l-.2-9.93,3.58-.07c2.63-.05,4.29.58,4.33,2.43l.03,1.6ZM196.55,15.57c-.02-.78-.72-.87-1.56-.86l-.76.02.04,2.06.76-.02c.84-.02,1.54-.13,1.52-.92v-.29Z"/>
          <path class="cls-2" d="M206.61,20.46l-2.91.06-.45,1.67c-.8.07-2.05.1-2.85.06l3.26-10c.83-.07,1.85-.1,2.68-.05l3.66,9.86c-.8.07-2.08.1-2.88.06l-.51-1.65ZM205.05,15.44l-.77,2.88,1.66-.03-.89-2.85Z"/>
          <path class="cls-2" d="M78.39,41.46l-.2-9.93,3.84-.08c2.69-.05,4.36.58,4.4,2.57l.09,4.59c.04,1.99-1.6,2.71-4.31,2.76l-3.82.08ZM83.66,34.63c-.02-.78-.73-.9-1.59-.88l-1.06.02.11,5.29,1.06-.02c.86-.02,1.57-.16,1.55-.9l-.07-3.5Z"/>
          <path class="cls-2" d="M96.81,38.59c.04,2.01-1.62,2.71-4.15,2.76-2.53.05-4.21-.58-4.25-2.59l-.1-4.96c-.04-1.99,1.62-2.69,4.15-2.74,2.53-.05,4.21.58,4.25,2.57l.1,4.96ZM93.94,34.21c-.02-.8-.69-.87-1.44-.86-.76.02-1.42.12-1.41.92l.08,3.88c.02.8.69.87,1.44.86.76-.02,1.42-.12,1.41-.92l-.08-3.88Z"/>
          <path class="cls-3" d="M113.91,37.48l-1.75,3.49c-.92.1-1.72.12-2.64.05l-1.89-3.42.15,7.22c-1.08.1-2.78.14-3.91.08l-.28-13.97c1.12-.1,2.99-.14,4.07-.08l3.1,5.75,2.89-5.87c1.12-.1,2.94-.14,4.03-.08l.28,13.97c-1.08.1-2.78.14-3.91.08l-.15-7.22Z"/>
          <path class="cls-3" d="M128.12,30.44c.94-.1,3.17-.17,3.87-.08l.21,10.43c.06,2.82-2.26,3.83-5.78,3.9-3.56.07-5.91-.84-5.97-3.67l-.21-10.43c1-.12,2.99-.14,3.91-.08l.2,9.68c.02,1.1.95,1.23,2.01,1.21,1.04-.02,1.98-.18,1.96-1.29l-.2-9.68Z"/>
          <path class="cls-3" d="M134.41,33.94c-.06-2.95,2.34-3.94,5.96-4.01,1.21-.02,2.33.05,3.87.29.12.9.15,2.23.06,3.13-1.15-.16-2.22-.22-3.18-.2-1.62.03-2.82.1-2.79,1.55l.1,4.93c.03,1.47,1.24,1.51,2.85,1.48.86-.02,2.16-.23,3.18-.43.22.96.33,2.04.35,3.08-1.61.42-3.12.64-4.16.66-3.62.07-6.05-.82-6.11-3.77l-.14-6.71Z"/>
          <path class="cls-3" d="M154.66,41.55l-4.09.08-.63,2.35c-1.12.1-2.88.14-4.01.08l4.59-14.07c1.16-.11,2.6-.13,3.76-.08l5.15,13.88c-1.12.11-2.92.14-4.05.08l-.72-2.32ZM152.47,34.49l-1.08,4.05,2.33-.05-1.25-4.01Z"/>
          <path class="cls-3" d="M170.99,36.33l-1.75,3.49c-.92.1-1.72.12-2.64.05l-1.89-3.42.15,7.22c-1.08.1-2.78.14-3.91.08l-.28-13.97c1.12-.1,2.99-.14,4.07-.08l3.1,5.75,2.89-5.87c1.12-.1,2.94-.14,4.03-.08l.28,13.97c-1.08.1-2.78.14-3.91.08l-.15-7.22Z"/>
          <path class="cls-3" d="M188.44,39.87c.05,2.37-1.81,3.37-4.7,3.43l-6.12.12-.28-13.97,5.61-.11c2.97-.06,4.89.82,4.93,3.13l.02.9c.03,1.41-.65,2.24-1.85,2.66,1.46.34,2.34,1.22,2.37,2.94l.02.9ZM183.99,33.26c-.01-.7-.67-.83-1.67-.81l-1,.02.05,2.39,1-.02c1-.02,1.66-.12,1.64-.83l-.02-.76ZM184.5,38.45c-.02-.82-.76-.95-1.66-.93l-1.43.03.05,2.62,1.45-.03c.94-.02,1.61-.22,1.6-.97v-.72Z"/>
          <path class="cls-3" d="M202.27,39.4c.06,2.82-2.28,3.81-5.84,3.88-3.56.07-5.93-.82-5.99-3.64l-.14-6.98c-.06-2.8,2.28-3.79,5.84-3.86,3.56-.07,5.93.82,5.99,3.62l.14,6.98ZM198.23,33.24c-.02-1.13-.97-1.23-2.03-1.21-1.06.02-2,.16-1.98,1.29l.11,5.46c.02,1.13.97,1.23,2.03,1.21,1.06-.02,2-.16,1.98-1.29l-.11-5.46Z"/>
          <path class="cls-3" d="M58.03,17.77c-.11-.16-1.39.55-1.46.59-.47.26-1.52.89-1.44,1.05.07.14,1.04-.08,1.86-.61.59-.37,1.12-.92,1.05-1.03M56.69,15.45c-.12-.15-1.32.69-1.39.74-.44.31-1.42,1.04-1.33,1.19.08.13,1.02-.19,1.78-.79.55-.43,1.02-1.03.93-1.14M55.14,13.31c-.14-.13-1.25.82-1.31.88-.41.35-1.3,1.18-1.2,1.32.1.12,1-.29,1.69-.97.5-.49.91-1.13.81-1.23M53.38,11.35c-.15-.12-1.16.94-1.21,1.01-.37.4-1.17,1.31-1.06,1.44.11.11.96-.39,1.59-1.14.45-.54.79-1.22.68-1.3M51.45,9.59c-.16-.1-1.06,1.06-1.11,1.12-.33.43-1.03,1.42-.9,1.54.12.1.92-.49,1.46-1.3.39-.58.66-1.29.55-1.37M49.34,8.03c-.17-.09-.94,1.16-.99,1.23-.28.46-.88,1.52-.74,1.62.13.09.86-.58,1.32-1.43.33-.62.53-1.35.41-1.41M47.09,6.69c-.18-.07-.82,1.25-.86,1.32-.24.49-.73,1.6-.58,1.69.14.08.8-.66,1.17-1.56.27-.65.39-1.4.26-1.45M44.71,5.59c-.18-.05-.69,1.32-.72,1.4-.19.51-.56,1.67-.4,1.74.14.06.73-.74,1.01-1.68.2-.67.24-1.43.11-1.47M42.2,4.73c-.19-.03-.55,1.39-.57,1.47-.13.53-.39,1.72-.22,1.77.15.05.65-.81.83-1.77.13-.69.09-1.45-.04-1.47M39.59,4.13c-.19,0-.4,1.44-.41,1.52-.08.54-.2,1.75-.03,1.78.15.03.56-.88.64-1.85.06-.7-.06-1.45-.19-1.46M37.25,5.23c-.02-.7-.21-1.44-.35-1.43-.19,0-.25,1.47-.25,1.56-.02.54-.02,1.76.16,1.78.16.02.47-.93.44-1.9M34.71,5.15c-.09-.69-.36-1.41-.5-1.39-.19.03-.09,1.49-.08,1.57.04.54.17,1.75.34,1.75.16,0,.36-.98.23-1.94M32.22,5.33c-.17-.68-.51-1.36-.64-1.32-.18.05.07,1.49.08,1.57.1.53.35,1.72.53,1.7.16-.02.26-1.01.03-1.95M29.78,5.77c-.23-.66-.65-1.3-.77-1.25-.18.07.22,1.48.25,1.56.15.52.53,1.68.7,1.64.15-.03.15-1.03-.18-1.95M27.4,6.45c-.3-.63-.78-1.23-.9-1.17-.17.09.37,1.45.41,1.52.2.5.7,1.61.87,1.56.15-.05.04-1.04-.37-1.92M25.11,7.38c-.36-.6-.9-1.14-1.01-1.07-.16.1.52,1.4.56,1.47.25.48.86,1.53,1.02,1.46.14-.06-.06-1.04-.57-1.87M22.92,8.53c-.42-.56-1.01-1.04-1.11-.96-.15.12.66,1.34.71,1.41.3.45,1.01,1.44,1.16,1.35.14-.08-.17-1.03-.75-1.8M20.87,9.89c-.48-.51-1.11-.94-1.21-.84-.14.13.79,1.27.84,1.33.34.42,1.15,1.33,1.29,1.23.13-.09-.27-1.01-.93-1.72M18.95,11.47c-.53-.46-1.2-.82-1.29-.72-.12.14.92,1.18.97,1.24.39.38,1.28,1.21,1.41,1.09.12-.1-.37-.97-1.1-1.61M17.2,13.23c-.57-.4-1.28-.69-1.35-.58-.11.16,1.03,1.08,1.09,1.13.13.1.31.24.49.38h0c.21-.07.4-.13.58-.19-.22-.25-.5-.51-.82-.74"/>
          <path class="cls-4" d="M34.6,9.15c-4.06.14-7.8,1.48-10.88,3.68.48-.03,1-.05,1.52-.05,1.15,0,2.17.1,3.11.31,1.69.38,3.3.97,4.87,1.55.4.15.79.29,1.18.43.39.14.78.28,1.17.43.22.09.45.17.67.25,5.34,1.98,11.02,3.83,16.76,4.2-3.42-6.64-10.44-11.07-18.4-10.8M52.29,36.41h-.03c-.39,0-.79.04-1.22.09-.49.05-.99.1-1.54.1h-.03c-.69,0-1.38,0-2.06-.01-.59,0-1.18,0-1.77-.01-.34,0-.69,0-1.03,0-1.8,0-4.17.02-6.51.2l-.36.03c-2.18.17-4.43.34-6.68.34-.41,0-.81,0-1.21-.01-.39,0-.77-.01-1.16-.01-.47,0-.86,0-1.23.03l-7.61.36c-.28.01-.56.04-.87.07-.46.04-.94.09-1.44.09-.08,0-.17,0-.25,0,3.31,6.92,10.49,11.6,18.65,11.32,8.18-.27,15.05-5.45,17.87-12.61l-1.52.05ZM42.26,46.04c-6.41,2.59-12.33.51-13.63.02-1.22-.46-2.77-1.2-4.42-2.39.82,0,1.63.02,2.45.03v-2.81h-1.41l2.48-1.24,2.17-1.09.97-.49,2.06,1.03,3.35,1.67.22.11-.18-.11-1.53-1.41h0l-2.08-1.29h6.6l2.65,1.33h0l2.69,1.35.22.11.07.03h-2.38v2.81c1.26,0,2.52,0,3.78,0-.94.72-2.3,1.62-4.09,2.34"/>
          <rect class="cls-4" x="34.55" y="40.89" width=".25" height="2.81"/>
          <rect class="cls-4" x="28.07" y="40.89" width="5.33" height="2.81"/>
          <polygon class="cls-4" points="35.67 43.7 41.16 43.7 41.16 40.89 36.51 40.89 35.67 40.89 35.67 43.7"/>
          <path class="cls-3" d="M61.89,36.07c-3.01,11.46-13.25,20.08-25.7,20.5-12.44.42-23.23-7.49-27.01-18.71-.14,0-.27,0-.4,0-.28,0-.56,0-.83,0-.13,0-.26,0-.39,0,1.44,4.56,4,8.71,7.53,12.11,5.45,5.25,12.61,8.15,20.16,8.15h0c.33,0,.66,0,.99-.02,13.28-.45,24.2-9.78,27.24-22.09-.53.02-1.06.04-1.6.06M55.45,8.15C50,2.9,42.84,0,35.28,0c-.33,0-.66,0-.99.02C22.3.42,12.22,8.08,8.15,18.63c.4-.22.8-.44,1.21-.66.32-.17.63-.35.95-.52C14.55,8.35,23.62,1.91,34.34,1.55c12.33-.42,23.04,7.35,26.91,18.41.54,0,1.08,0,1.62-.01-1.46-4.44-3.98-8.48-7.42-11.8"/>
          <path class="cls-2" d="M70.43,34.41s-4.92.02-6.61.06c-.16,0-.29,0-.38,0-.4.01-.79.03-1.19.04-1.93.07-3.85.16-5.78.22l-2.12.07-2.08.07c-.94,0-1.83.19-2.78.19-1.28,0-2.56-.02-3.84-.02-2.55-.01-5.11,0-7.66.2-2.31.18-4.62.36-6.93.36-1.23,0-2.43-.05-3.68,0-1.37.07-2.73.13-4.1.19-1.17.05-2.34.11-3.51.16-.98.05-1.94.25-2.92.12-.08-.01-.17-.02-.25-.03-1.63-.18-3.45-.03-5.06.15-.94.11-1.88.12-2.83.12-.53,0-1.06,0-1.59,0h0c-.92,0-1.84.02-2.76.12-.6.07-1.45.11-2.21.11-.25,0-.48,0-.68-.01l-1.29-.05-.02-1.29L.01,25.15v-.85s.75-.38.75-.38c.29-.15.56-.3.83-.44.55-.3,1.11-.61,1.78-.86,1.39-.53,2.73-1.17,4.05-1.86.66-.34,1.31-.69,1.96-1.05,2.78-1.52,5.53-3.08,8.55-4.09,1.28-.43,1.84-.56,2.8-.77.25-.05.51-.12.77-.18.42-.1.85-.2,1.27-.24,1.74-.15,3.53-.23,5.24.15,2,.44,3.94,1.24,5.86,1.93.38.14.77.28,1.15.42.23.08.45.17.68.25,5.79,2.15,11.82,4.09,18.02,4.34.57.03,1.15.03,1.72.03,2.1-.02,4.2-.05,6.29-.06.53,0,1.06,0,1.59-.01.69,0,1.37,0,2.06,0,4.36,0,5.05,2.45,5.07,3.91l.08,5.01c0,.58-.1,4.01-.1,4.01"/>
          <path class="cls-3" d="M57.99,37c-.87-.43-1.86-.55-1.91-.41-.06.17,1.04.68,1.54.89.08.03,1.43.6,1.52.43.06-.12-.52-.6-1.15-.92M56.99,39.35c-.82-.52-1.79-.75-1.86-.61-.07.16.97.79,1.44,1.05.07.04,1.36.75,1.46.59.08-.11-.46-.66-1.05-1.03M55.76,41.56c-.76-.6-1.7-.93-1.78-.79-.09.15.88.88,1.33,1.19.07.05,1.27.88,1.39.74.09-.11-.39-.7-.93-1.14M54.33,43.61c-.69-.68-1.6-1.1-1.69-.97-.11.14.79.97,1.2,1.32.06.05,1.17,1.01,1.31.88.1-.1-.31-.74-.81-1.23M52.7,45.49c-.62-.75-1.48-1.25-1.59-1.14-.12.13.68,1.04,1.05,1.44.06.06,1.07,1.12,1.22,1.01.11-.09-.24-.77-.68-1.3M50.9,47.2c-.54-.81-1.34-1.4-1.46-1.3-.13.11.57,1.11.9,1.54.05.07.95,1.23,1.11,1.12.11-.07-.16-.79-.55-1.37M48.94,48.7c-.46-.86-1.2-1.53-1.32-1.44-.14.1.46,1.16.74,1.62.04.07.82,1.31.99,1.23.12-.06-.08-.8-.41-1.41M46.84,50c-.37-.9-1.03-1.64-1.17-1.56-.15.09.34,1.2.57,1.69.04.07.68,1.39.86,1.32.13-.05,0-.8-.26-1.45M44.6,51.09c-.27-.93-.86-1.74-1-1.68-.16.07.21,1.23.4,1.74.03.08.53,1.45.72,1.4.13-.04.09-.8-.11-1.47M42.25,51.94c-.18-.96-.68-1.82-.83-1.77-.17.05.09,1.24.22,1.77.02.08.38,1.5.57,1.47.13-.02.17-.78.04-1.47M39.79,52.55c-.08-.97-.48-1.88-.64-1.85-.17.04-.04,1.25.03,1.78.01.08.22,1.53.41,1.52.14,0,.25-.76.19-1.46M36.81,51.01c-.17.02-.17,1.24-.16,1.78,0,.08.06,1.55.25,1.56.14,0,.33-.73.35-1.43.03-.97-.28-1.92-.44-1.9M34.48,51.06c-.17,0-.3,1.21-.34,1.75,0,.08-.11,1.54.08,1.57.13.02.4-.69.5-1.39.13-.96-.08-1.94-.23-1.94M32.19,50.86c-.17-.02-.43,1.17-.53,1.7-.01.08-.27,1.53-.08,1.57.13.04.48-.65.64-1.32.23-.94.13-1.94-.03-1.95M29.96,50.43c-.17-.04-.55,1.12-.7,1.64-.02.08-.42,1.49-.25,1.56.13.05.54-.59.77-1.25.33-.92.33-1.91.17-1.95M27.78,49.78c-.17-.05-.66,1.06-.87,1.56-.03.08-.58,1.44-.41,1.52.12.06.6-.54.9-1.17.42-.88.52-1.87.37-1.92M25.68,48.9c-.16-.07-.77.98-1.02,1.46-.04.08-.72,1.37-.56,1.47.12.07.65-.47,1.01-1.07.51-.83.71-1.81.57-1.87M23.68,47.82c-.15-.09-.86.9-1.16,1.35-.05.07-.85,1.29-.7,1.41.11.09.69-.4,1.11-.96.59-.77.89-1.72.75-1.8M21.8,46.54c-.14-.1-.95.81-1.3,1.23-.05.06-.98,1.2-.84,1.33.1.1.73-.33,1.2-.84.66-.71,1.06-1.63.93-1.72M20.06,45.07c-.13-.11-1.03.71-1.41,1.09-.06.06-1.1,1.09-.97,1.24.09.1.76-.26,1.28-.72.73-.64,1.22-1.51,1.1-1.61M18.46,43.42c-.12-.13-1.09.6-1.51.94-.07.05-1.2.97-1.1,1.13.08.11.78-.18,1.35-.58.79-.56,1.37-1.38,1.26-1.49M17.03,41.61c-.1-.14-1.15.48-1.6.78-.07.05-1.3.85-1.21,1.01.06.12.8-.1,1.4-.44.85-.48,1.5-1.23,1.41-1.35M15.79,39.64c-.09-.15-1.19.36-1.68.61-.08.04-1.38.71-1.31.88.05.13.8-.01,1.44-.29.89-.39,1.62-1.07,1.54-1.2M14.74,37.51s0,0,0,0c-.14,0-.28,0-.42,0-.4.09-.99.3-1.31.42-.08.03-1.44.56-1.39.74.04.13.8.07,1.46-.14.93-.29,1.72-.89,1.66-1.03"/>
        </g>
      </g>
    </g>
  </g>
</svg>